<svg xmlns="http://www.w3.org/2000/svg" viewBox="0 0 800 800" width="800" height="800"><defs><filter id="b"><feGaussianBlur stdDeviation="27"/></filter><filter id="n"><feTurbulence type="fractalNoise" baseFrequency="0.8" numOctaves="2"/><feColorMatrix values="0 0 0 0 0  0 0 0 0 0  0 0 0 0 0  0 0 0 .12 0"/></filter></defs><rect width="100%" height="100%" fill="#3d405b"/><g filter="url(#b)"><circle cx="378" cy="618" r="208" fill="#f2cc8f" opacity="0.53"/><rect x="330" y="185" width="248" height="243" transform="rotate(0 480 265)" fill="#81b29a" opacity="0.72"/><rect x="256" y="574" width="268" height="222" transform="rotate(-21 406 654)" fill="#f4f1de" opacity="0.85"/><rect x="609" y="-65" width="182" height="100" transform="rotate(18 759 15)" fill="#f4f1de" opacity="0.88"/><circle cx="308" cy="798" r="128" fill="#81b29a" opacity="0.71"/><circle cx="731" cy="437" r="207" fill="#f4f1de" opacity="0.70"/><circle cx="374" cy="99" r="186" fill="#f2cc8f" opacity="0.60"/><rect x="647" y="561" width="365" height="189" transform="rotate(23 797 641)" fill="#f4f1de" opacity="0.65"/><circle cx="546" cy="599" r="119" fill="#e07a5f" opacity="0.91"/><rect x="136" y="540" width="233" height="238" transform="rotate(25 286 620)" fill="#81b29a" opacity="0.63"/><circle cx="730" cy="671" r="206" fill="#81b29a" opacity="0.62"/><rect x="-86" y="413" width="397" height="82" transform="rotate(-8 64 493)" fill="#81b29a" opacity="0.82"/><circle cx="154" cy="20" r="256" fill="#f4f1de" opacity="0.69"/><rect x="-105" y="539" width="173" height="156" transform="rotate(15 45 619)" fill="#81b29a" opacity="0.73"/></g><rect width="100%" height="100%" filter="url(#n)"/></svg>