<svg xmlns="http://www.w3.org/2000/svg" viewBox="0 0 800 1000" width="800" height="1000"><defs><filter id="b"><feGaussianBlur stdDeviation="30"/></filter><filter id="n"><feTurbulence type="fractalNoise" baseFrequency="0.8" numOctaves="2"/><feColorMatrix values="0 0 0 0 0  0 0 0 0 0  0 0 0 0 0  0 0 0 .12 0"/></filter></defs><rect width="100%" height="100%" fill="#003049"/><g filter="url(#b)"><circle cx="404" cy="666" r="197" fill="#f77f00" opacity="0.54"/><circle cx="519" cy="219" r="171" fill="#d62828" opacity="0.69"/><circle cx="92" cy="564" r="204" fill="#f77f00" opacity="0.56"/><rect x="495" y="562" width="181" height="207" transform="rotate(7 645 642)" fill="#f77f00" opacity="0.66"/><rect x="-103" y="490" width="298" height="167" transform="rotate(-21 47 570)" fill="#f77f00" opacity="0.72"/><rect x="423" y="755" width="202" height="208" transform="rotate(6 573 835)" fill="#fcbf49" opacity="0.76"/><rect x="-51" y="480" width="438" height="75" transform="rotate(9 99 560)" fill="#fcbf49" opacity="0.58"/><circle cx="795" cy="321" r="176" fill="#eae2b7" opacity="0.66"/><rect x="34" y="635" width="191" height="207" transform="rotate(-11 184 715)" fill="#f77f00" opacity="0.71"/><circle cx="746" cy="459" r="78" fill="#fcbf49" opacity="0.55"/><circle cx="168" cy="775" r="185" fill="#eae2b7" opacity="0.69"/><rect x="632" y="491" width="310" height="147" transform="rotate(14 782 571)" fill="#d62828" opacity="0.64"/><circle cx="593" cy="816" r="83" fill="#eae2b7" opacity="0.93"/><circle cx="713" cy="680" r="247" fill="#eae2b7" opacity="0.82"/></g><rect width="100%" height="100%" filter="url(#n)"/></svg>