<svg xmlns="http://www.w3.org/2000/svg" viewBox="0 0 1000 750" width="1000" height="750"><defs><filter id="b"><feGaussianBlur stdDeviation="27"/></filter><filter id="n"><feTurbulence type="fractalNoise" baseFrequency="0.8" numOctaves="2"/><feColorMatrix values="0 0 0 0 0  0 0 0 0 0  0 0 0 0 0  0 0 0 .12 0"/></filter></defs><rect width="100%" height="100%" fill="#2b2d42"/><g filter="url(#b)"><circle cx="985" cy="384" r="240" fill="#ef233c" opacity="0.52"/><circle cx="253" cy="518" r="224" fill="#edf2f4" opacity="0.51"/><circle cx="464" cy="399" r="109" fill="#d90429" opacity="0.90"/><circle cx="91" cy="496" r="65" fill="#d90429" opacity="0.82"/><rect x="335" y="308" width="282" height="84" transform="rotate(22 485 388)" fill="#d90429" opacity="0.53"/><circle cx="110" cy="676" r="120" fill="#d90429" opacity="0.81"/><rect x="775" y="585" width="256" height="208" transform="rotate(21 925 665)" fill="#d90429" opacity="0.56"/><circle cx="552" cy="38" r="109" fill="#8d99ae" opacity="0.57"/><rect x="596" y="518" width="296" height="202" transform="rotate(-8 746 598)" fill="#d90429" opacity="0.84"/><rect x="-12" y="82" width="199" height="196" transform="rotate(14 138 162)" fill="#d90429" opacity="0.63"/><rect x="822" y="579" width="407" height="219" transform="rotate(-18 972 659)" fill="#ef233c" opacity="0.62"/><rect x="391" y="211" width="186" height="266" transform="rotate(27 541 291)" fill="#ef233c" opacity="0.84"/><rect x="202" y="169" width="301" height="147" transform="rotate(-16 352 249)" fill="#edf2f4" opacity="0.61"/><circle cx="260" cy="385" r="240" fill="#d90429" opacity="0.90"/></g><rect width="100%" height="100%" filter="url(#n)"/></svg>